<svg xmlns:xlink="http://www.w3.org/1999/xlink" xmlns="http://www.w3.org/2000/svg" data-testid="geist-icon" height="16" stroke-linejoin="round" viewBox="0 0 16 16" width="16" style="width: 12px; height: 12px; color: currentcolor;"><path fill-rule="evenodd" clip-rule="evenodd" d="M1 3.25C1 1.45507 2.45507 0 4.25 0H11.75C13.5449 0 15 1.45507 15 3.25V15.25V16H14.25H1.75H1V15.25V3.25ZM4.25 1.5C3.2835 1.5 2.5 2.2835 2.5 3.25V14.5H13.5V3.25C13.5 2.2835 12.7165 1.5 11.75 1.5H4.25ZM4 4C4 3.44772 4.44772 3 5 3H11C11.5523 3 12 3.44772 12 4V10H4V4ZM9 13H12V11.5H9V13Z" fill="#71717A"></path></svg>