<?xml version="1.0" encoding="UTF-8"?>
<!DOCTYPE svg PUBLIC "-//W3C//DTD SVG 1.1//EN" "http://www.w3.org/Graphics/SVG/1.1/DTD/svg11.dtd">
<svg xmlns="http://www.w3.org/2000/svg" version="1.1" width="128px" height="128px" style="shape-rendering:geometricPrecision; text-rendering:geometricPrecision; image-rendering:optimizeQuality; fill-rule:evenodd; clip-rule:evenodd" xmlns:xlink="http://www.w3.org/1999/xlink">
<g><path style="opacity:0.661" fill="#fe7d00" d="M 97.5,51.5 C 90.1667,51.5 82.8333,51.5 75.5,51.5C 75.8257,59.6841 75.4924,67.6841 74.5,75.5C 74.5,67.5 74.5,59.5 74.5,51.5C 66.8333,51.5 59.1667,51.5 51.5,51.5C 51.5,59.5 51.5,67.5 51.5,75.5C 44.1667,75.5 36.8333,75.5 29.5,75.5C 29.5,60.1667 29.5,44.8333 29.5,29.5C 29.5,22.1667 29.5,14.8333 29.5,7.5C 52.1667,7.5 74.8333,7.5 97.5,7.5C 97.5,22.1667 97.5,36.8333 97.5,51.5 Z M 74.5,75.5 C 66.8333,75.5 59.1667,75.5 51.5,75.5C 51.5,67.5 51.5,59.5 51.5,51.5C 59.1667,51.5 66.8333,51.5 74.5,51.5C 74.5,59.5 74.5,67.5 74.5,75.5 Z"/></g>
<g><path style="opacity:0.4" fill="#14c8c7" d="M 29.5,29.5 C 29.5,44.8333 29.5,60.1667 29.5,75.5C 36.8333,75.5 44.1667,75.5 51.5,75.5C 51.5,82.8333 51.5,90.1667 51.5,97.5C 36.8333,97.5 22.1667,97.5 7.5,97.5C 7.5,74.8333 7.5,52.1667 7.5,29.5C 14.8333,29.5 22.1667,29.5 29.5,29.5 Z"/></g>
<g><path style="opacity:0.628" fill="#3263ff" d="M 97.5,51.5 C 104.833,51.5 112.167,51.5 119.5,51.5C 119.5,74.1667 119.5,96.8333 119.5,119.5C 96.8333,119.5 74.1667,119.5 51.5,119.5C 51.5,112.167 51.5,104.833 51.5,97.5C 51.5,90.1667 51.5,82.8333 51.5,75.5C 59.1667,75.5 66.8333,75.5 74.5,75.5C 75.4924,67.6841 75.8257,59.6841 75.5,51.5C 82.8333,51.5 90.1667,51.5 97.5,51.5 Z"/></g>
</svg>
