<?xml version="1.0" standalone="no"?><!DOCTYPE svg PUBLIC "-//W3C//DTD SVG 1.1//EN" "http://www.w3.org/Graphics/SVG/1.1/DTD/svg11.dtd"><svg t="1644388262044" class="icon" viewBox="0 0 1024 1024" version="1.1" xmlns="http://www.w3.org/2000/svg" p-id="1452" xmlns:xlink="http://www.w3.org/1999/xlink" width="128" height="128"><defs><style type="text/css"></style></defs><path d="M956.484 427.604v135.032l-45.01 202.55L1024 720.176V360.088c-37.228 0-67.516 30.288-67.516 67.516z" fill="#ffffff" p-id="1453"></path><path d="M888.968 562.638V303.824c0-18.644-15.114-33.758-33.758-33.758-18.644 0-33.758 15.114-33.758 33.758v416.352h135.034v-157.538h-67.518zM708.924 585.142H652.66v-135.032c0-37.228-30.288-67.516-67.516-67.516v-78.77c0-18.644-15.114-33.758-33.758-33.758s-33.758 15.114-33.758 33.758v146.286h-78.77v-135.032c0-37.228-30.288-67.516-67.516-67.516v-45.012c0-37.134-30.382-67.516-67.516-67.516h-67.516v675.164l517.626-90.022-45.012-135.034z" fill="#ffffff" p-id="1454"></path><path d="M56.264 360.088v135.032H0v225.054l168.792 45.01L123.78 292.572c-37.228 0-67.516 30.288-67.516 67.516z" fill="#ffffff" p-id="1455"></path><path d="M585.142 303.824c0-18.644-15.114-33.758-33.758-33.758s-33.758 15.114-33.758 33.758v146.286H371.34v-135.032c0-37.228-30.288-67.516-67.516-67.516v-45.012c0-37.134-30.382-67.516-67.516-67.516H191.296c-37.134 0-67.516 30.382-67.516 67.516v562.638h461.362V303.824z" fill="#ffffff" p-id="1456"></path><path d="M956.484 720.176l-45.012 151.912L956.484 1024H1024V720.176z" fill="#ffffff" p-id="1457"></path><path d="M0 720.176h956.484V1024H0z" fill="#ffffff" p-id="1458"></path><path d="M151.912 872.088m-16.88 0a16.88 16.88 0 1 0 33.76 0 16.88 16.88 0 1 0-33.76 0Z" fill="#ffffff" p-id="1459"></path><path d="M84.396 939.604m-16.88 0a16.88 16.88 0 1 0 33.76 0 16.88 16.88 0 1 0-33.76 0Z" fill="#ffffff" p-id="1460"></path><path d="M872.088 894.594m-16.88 0a16.88 16.88 0 1 0 33.76 0 16.88 16.88 0 1 0-33.76 0Z" fill="#ffffff" p-id="1461"></path><path d="M703.296 0l-45.01 78.77 45.01 78.77c43.504 0 78.77-35.266 78.77-78.77S746.8 0 703.296 0z" fill="#ffffff" p-id="1462"></path><path d="M624.528 78.77c0 43.504 35.266 78.77 78.77 78.77V0c-43.504 0-78.77 35.266-78.77 78.77z" fill="#ffffff" p-id="1463"></path></svg>
